<svg width="61" height="60" viewBox="0 0 61 60" fill="none" xmlns="http://www.w3.org/2000/svg">
<rect x="6.75" y="12" width="48" height="48" rx="24" fill="#0082BA" fill-opacity="0.15"/>
<path fill-rule="evenodd" clip-rule="evenodd" d="M30.75 34C39.5594 34 46.75 26.6402 46.75 17.5C46.75 8.35978 39.5594 1 30.75 1C21.9406 1 14.75 8.35978 14.75 17.5C14.75 26.6402 21.9406 34 30.75 34ZM30.75 35C40.1388 35 47.75 27.165 47.75 17.5C47.75 7.83502 40.1388 0 30.75 0C21.3612 0 13.75 7.83502 13.75 17.5C13.75 27.165 21.3612 35 30.75 35Z" fill="#0082BA"/>
<path fill-rule="evenodd" clip-rule="evenodd" d="M20.1107 4.65283C23.0091 7.66023 26.9344 9.49981 31.2506 9.49981C35.5668 9.49981 39.4921 7.66023 42.3906 4.65283L43.1106 5.34678C40.0399 8.53293 35.861 10.4998 31.2506 10.4998C26.6403 10.4998 22.4614 8.53293 19.3906 5.34678L20.1107 4.65283Z" fill="#0082BA"/>
<path fill-rule="evenodd" clip-rule="evenodd" d="M20.0773 30.3774C22.8402 27.9798 26.5994 26.4998 30.7496 26.4998C34.8997 26.4998 38.659 27.9798 41.4219 30.3774L42.0773 29.6222C39.1305 27.065 35.1378 25.4998 30.7496 25.4998C26.3613 25.4998 22.3687 27.065 19.4219 29.6222L20.0773 30.3774Z" fill="#0082BA"/>
<path fill-rule="evenodd" clip-rule="evenodd" d="M36.9528 29.3782C38.6614 26.3882 39.75 22.1907 39.75 17.5C39.75 12.8093 38.6614 8.61182 36.9528 5.62177C35.2281 2.60343 32.9977 1 30.75 1C28.5023 1 26.2719 2.60343 24.5472 5.62177C22.8386 8.61182 21.75 12.8093 21.75 17.5C21.75 22.1907 22.8386 26.3882 24.5472 29.3782C26.2719 32.3966 28.5023 34 30.75 34C32.9977 34 35.2281 32.3966 36.9528 29.3782ZM30.75 35C36.2728 35 40.75 27.165 40.75 17.5C40.75 7.83502 36.2728 0 30.75 0C25.2272 0 20.75 7.83502 20.75 17.5C20.75 27.165 25.2272 35 30.75 35Z" fill="#0082BA"/>
<path d="M30.75 1H31.75V34H30.75V1Z" fill="#0082BA"/>
<path d="M47.75 17L47.75 18L13.75 18L13.75 17L47.75 17Z" fill="#0082BA"/>
<circle cx="43.25" cy="7.5" r="7.5" fill="#0082BA"/>
<path fill-rule="evenodd" clip-rule="evenodd" d="M49.9571 2.65618C50.3477 3.04671 50.3477 3.67987 49.9571 4.07039L43.6886 10.3389L40.1262 7.49543C39.6946 7.1509 39.6239 6.52168 39.9685 6.09004C40.313 5.65839 40.9422 5.58778 41.3739 5.93231L43.5388 7.66028L48.5429 2.65617C48.9335 2.26565 49.5666 2.26565 49.9571 2.65618Z" fill="white"/>
</svg>
