<svg width="20" height="18" viewBox="0 0 20 18" fill="none" xmlns="http://www.w3.org/2000/svg">
<path d="M6 18.0005C4.17526 18.0014 2.58119 16.7673 2.125 15.0005H0V13.0005H2.126C2.64564 10.9879 4.62012 9.70874 6.66928 10.0571C8.71845 10.4054 10.1594 12.2651 9.98486 14.3363C9.81035 16.4075 8.07856 18 6 18.0005ZM6 12.0005C4.9074 12.0016 4.01789 12.8793 4.00223 13.9718C3.98658 15.0643 4.85057 15.9672 5.94269 15.9996C7.03481 16.032 7.95083 15.182 8 14.0905V14.4905V14.0005C8 12.8959 7.10457 12.0005 6 12.0005ZM20 15.0005H11V13.0005H20V15.0005ZM11 8.00049C9.17563 8.00096 7.58209 6.76693 7.126 5.00049H0V3.00049H7.126C7.64564 0.987939 9.62012 -0.291258 11.6693 0.0570554C13.7184 0.405368 15.1594 2.26511 14.9849 4.33633C14.8103 6.40755 13.0786 7.99996 11 8.00049ZM11 2.00049C9.9074 2.0016 9.01789 2.87934 9.00223 3.97183C8.98658 5.06433 9.85056 5.9672 10.9427 5.99961C12.0348 6.03203 12.9508 5.18199 13 4.09049V4.49049V4.00049C13 2.89592 12.1046 2.00049 11 2.00049ZM20 5.00049H16V3.00049H20V5.00049Z" fill="white"/>
</svg>
