<svg width="176" height="28" viewBox="0 0 176 28" fill="none" xmlns="http://www.w3.org/2000/svg">
<path d="M150.285 24.5656L146.592 16.7003H143.626V24.5656H138.003V3.4366H148.743C150.704 3.4366 152.655 4.07944 154.032 5.54305C155.219 6.80203 155.864 8.49476 155.864 10.232C155.864 11.5087 155.489 12.6832 154.828 13.6641C154.164 14.6473 153.217 15.4369 152.071 15.9507L156.482 24.5656H150.285ZM150.735 10.2297C150.735 8.95519 149.725 8.09437 148.508 8.09437H143.626V12.4207H148.508C149.725 12.4207 150.735 11.5065 150.735 10.2297ZM111.62 24.5656L103.753 13.4639L111.092 3.4366H117.263L109.992 13.3616L117.597 24.5656H111.62ZM102.661 24.5656L95.3526 14.1891V24.5656H89.7882V3.4366H95.3526V12.7188L102.132 3.4366H108.305L101.033 13.3616L108.639 24.5656H102.661ZM70.9004 24.5656V3.4366H87.5606V8.06545H76.5241V11.8491H86.2404V15.9774H76.5241V19.9368H87.5606V24.5678H70.9004V24.5656ZM49.5303 24.5656L60.1099 8.06545H50.5474V3.4366H69.3825L58.7282 19.9368H69.1101V24.5678H49.5303V24.5656ZM119.115 24.5656V3.4366H135.775V8.06545H124.739V11.8491H134.455V15.9774H124.739V19.9368H135.775V24.5678H119.115V24.5656ZM25.8581 6.41277L6.24759 6.42389C3.64662 6.42389 1.23458 7.28249 1.23897 10.2942C1.24117 14.7963 1.24337 19.2606 1.24337 23.7604C1.24337 25.3931 2.55044 26.741 4.16725 26.741L34.3793 26.7299L33.5665 27.9889L4.16725 28C1.86505 28 0 26.1093 0 23.7804V10.3031C0.0109838 5.3829 1.3554 3.44773 6.41893 3.44773L34.9878 3.4366L23.7118 19.4274H16.68L25.8581 6.41277ZM12.5105 21.585L32.121 21.5739C34.7242 21.5739 37.134 20.7153 37.1296 17.7035C37.1274 13.2037 37.1252 8.73943 37.1252 4.23737C37.1252 2.6047 35.8182 1.25675 34.2014 1.25675L3.98932 1.26787L4.80212 0.00889247L34.2014 0C36.5036 0 38.3686 1.88846 38.3686 4.21957V17.6969C38.3576 22.6171 37.0132 24.5523 31.9497 24.5523L3.38081 24.5634L14.6568 8.57483H21.6886L12.5105 21.585ZM169.278 8.06323V24.5634H163.652V8.06323H156.932V3.43438H176V8.06323H169.278Z" fill="#0082BA"/>
</svg>
